#!OML:ASF F:\VICON\USERDATA\INSTALL\Justin_Nancy\Justin_Nancy.ASF
:FULLY-SPECIFIED
:DEGREES
126
root 0.633706 17.5061 -25.1208 7.13134 -3.11444 -1.0938
lowerback 4.11603 2.26572 1.23146
upperback 0.537125 3.09503 1.19468
thorax -1.7541 1.53902 0.364318
lowerneck -14.5594 -4.09592 -9.12242
upperneck 19.9037 -4.88201 6.27505
head 9.02543 -2.32171 3.06757
rclavicle -1.59028e-014 -1.23246e-014
rhumerus -30.0839 -11.1034 -82.3964
rradius 28.7516
rwrist 8.18385
rhand -15.0382 9.96868
rfingers 7.12502
rthumb 11.1279 -19.7163
lclavicle -1.59028e-014 -1.23246e-014
lhumerus -38.6421 29.9455 70.1837
lradius 17.6443
lwrist -22.9452
lhand -10.1901 24.9231
lfingers 7.12502
lthumb 15.8006 54.2982
rfemur 15.8758 4.42205 26.326
rtibia 11.0858
rfoot -2.81398 -4.84129
rtoes -11.3228
lfemur -32.4851 -4.77679 -17.9102
ltibia 23.7242
lfoot -6.08378 2.02389
ltoes -1.8479
127
root 0.654124 17.5307 -24.9686 7.19935 -3.34831 -1.2051
lowerback 4.09061 2.43456 1.33902
upperback 0.408784 3.32626 1.16786
thorax -1.86365 1.65266 0.262033
lowerneck -14.2902 -4.23747 -9.03368
upperneck 19.7908 -5.10285 6.19883
head 8.95176 -2.43036 3.00001
rclavicle -1.08338e-014 -4.37326e-015
rhumerus -30.6216 -11.3407 -82.202
rradius 28.769
rwrist 8.5237
rhand -14.5491 9.66882
rfingers 7.12502
rthumb 11.5996 -19.9901
lclavicle -1.08338e-014 -4.37326e-015
lhumerus -38.5583 29.2852 70.5591
lradius 17.8548
lwrist -22.5782
lhand -10.148 25.72
lfingers 7.12502
lthumb 15.8411 55.092
rfemur 15.0346 4.54185 26.1637
rtibia 13.0326
rfoot -1.88531 -4.14739
rtoes -11.5184
lfemur -31.9584 -4.31382 -18.0081
ltibia 23.6445
lfoot -6.24774 1.78199
ltoes -3.02204
128
root 0.672502 17.5526 -24.8158 7.18354 -3.33055 -1.17807
lowerback 4.16907 2.50693 1.27279
upperback 0.171548 3.42589 1.15136
thorax -2.15384 1.70069 0.265827
lowerneck -13.8112 -4.23585 -9.00946
upperneck 19.8695 -5.15434 6.20681
head 8.89441 -2.46066 2.99912
rclavicle -4.07012e-014 -1.74931e-014
rhumerus -31.341 -11.6497 -81.9059
rradius 28.7776
rwrist 9.27464
rhand -14.2013 9.38
rfingers 7.12502
rthumb 11.935 -20.2598
lclavicle -4.07012e-014 -1.74931e-014
lhumerus -38.6855 28.6286 70.7998
lradius 17.9948
lwrist -22.1834
lhand -9.85303 26.3874
lfingers 7.12502
lthumb 16.1252 55.7366
rfemur 14.202 4.41914 25.9318
rtibia 15.0704
rfoot -0.760169 -3.47636
rtoes -11.5172
lfemur -31.3027 -4.08359 -18.1987
ltibia 23.4767
lfoot -6.5673 1.51162
ltoes -3.21908
129
root 0.683423 17.5821 -24.6561 7.07894 -3.03437 -0.742976
lowerback 4.16919 2.45774 0.782289
upperback 0.112571 3.33613 1.05205
thorax -2.23676 1.66019 0.440646
lowerneck -13.7575 -4.2244 -9.00951
upperneck 19.9451 -5.16383 6.28438
head 8.91303 -2.45843 3.02626
rclavicle -3.49861e-014 -3.57812e-015
rhumerus -31.6208 -11.6753 -81.8125
rradius 28.687
rwrist 9.48821
rhand -14.1574 9.68742
rfingers 7.12502
rthumb 11.9774 -19.9499
lclavicle -3.49861e-014 -3.57812e-015
lhumerus -38.6083 28.3315 70.997
lradius 18.1062
lwrist -21.9742
lhand -9.58453 25.6086
lfingers 7.12502
lthumb 16.3837 54.9367
rfemur 13.3566 4.2007 25.4265
rtibia 17.2406
rfoot 0.5599 -3.1661
rtoes -11.2482
lfemur -30.4775 -3.84163 -18.8792
ltibia 23.2344
lfoot -6.9655 1.08615
ltoes -3.39552
130
root 0.692628 17.6114 -24.4907 7.07501 -3.08885 -0.415142
lowerback 4.04416 2.49337 0.331524
upperback 0.147568 3.35911 0.984307
thorax -2.15265 1.67638 0.627692
lowerneck -14.2985 -4.30633 -9.09233
upperneck 20.2325 -5.23399 6.33523
head 9.12165 -2.48373 3.04488
rclavicle 4.1546e-014 0
rhumerus -31.7468 -11.4616 -81.8813
rradius 28.6752
rwrist 9.03922
rhand -14.1398 9.65188
rfingers 7.12502
rthumb 11.9943 -19.9845
lclavicle 4.1546e-014 0
lhumerus -38.3232 28.2893 71.2033
lradius 18.1135
lwrist -21.8967
lhand -10.0251 23.9527
lfingers 7.12502
lthumb 15.9595 53.3152
rfemur 12.3707 4.16027 24.9186
rtibia 19.4585
rfoot 2.19131 -2.77722
rtoes -10.4346
lfemur -29.6791 -3.18913 -19.5068
ltibia 22.9546
lfoot -7.10381 0.896261
ltoes -4.81219
131
root 0.698619 17.6332 -24.3278 7.20859 -3.25493 -0.228748
lowerback 3.77391 2.54183 -0.0369023
upperback 0.131544 3.40531 0.959018
thorax -2.03818 1.70333 0.816689
lowerneck -14.7816 -4.36448 -9.16314
upperneck 20.5978 -5.27221 6.34445
head 9.34364 -2.49891 3.05285
rclavicle 2.94201e-014 1.31198e-014
rhumerus -31.9033 -11.2269 -81.9255
rradius 28.5959
rwrist 8.82929
rhand -13.7312 9.09077
rfingers 7.12502
rthumb 12.3883 -20.5222
lclavicle 2.94201e-014 1.31198e-014
lhumerus -37.985 27.7408 71.7268
lradius 18.3316
lwrist -21.2958
lhand -10.0559 24.0683
lfingers 7.12502
lthumb 15.9298 53.4332
rfemur 11.2318 4.14736 24.523
rtibia 21.6314
rfoot 4.20763 -2.4481
rtoes -8.94479
lfemur -29.0977 -2.41411 -19.9359
ltibia 22.7092
lfoot -7.12525 0.578522
ltoes -6.49028
132
root 0.707105 17.6485 -24.1716 7.23495 -3.20159 -0.136723
lowerback 3.72646 2.58096 -0.174334
upperback 0.0364437 3.45107 0.894728
thorax -2.11418 1.72757 0.824348
lowerneck -14.6653 -4.40486 -9.09094
upperneck 20.5737 -5.35196 6.32706
head 9.31788 -2.53425 3.0254
rclavicle -5.96354e-014 -6.75868e-015
rhumerus -32.2324 -11.211 -81.8946
rradius 28.5759
rwrist 9.12911
rhand -13.5786 9.11108
rfingers 7.12502
rthumb 12.5355 -20.4929
lclavicle -5.96354e-014 -6.75868e-015
lhumerus -37.7274 26.0284 72.7266
lradius 19.0015
lwrist -19.699
lhand -9.79148 25.4103
lfingers 7.12502
lthumb 16.1844 54.7546
rfemur 10.0876 3.98591 24.2721
rtibia 23.8189
rfoot 6.26735 -2.50383
rtoes -6.877
lfemur -28.5018 -1.99584 -20.1832
ltibia 22.5414
lfoot -7.19741 0.422026
ltoes -6.50924
